<?xml version="1.0" encoding="utf-8"?>
<!-- Generator: Adobe Illustrator 23.0.3, SVG Export Plug-In . SVG Version: 6.00 Build 0)  -->
<svg version="1.1" id="Layer_1" xmlns="http://www.w3.org/2000/svg" xmlns:xlink="http://www.w3.org/1999/xlink" x="0px" y="0px"
	 viewBox="0 0 24 24" style="enable-background:new 0 0 24 24;" xml:space="preserve">
<g>
	<path d="M10.4,22.7C9,23,8,22.3,7.4,21.1c-0.6-1-1.2-2-1.6-3.1c-0.5-1.4-1.2-2.7-1.8-3.9c-0.2-0.5-0.3-1-0.4-1.6
		C3.3,10,3.9,7.6,5.1,5.4c0.3-0.6,0.6-1.2,1-1.7C6.5,3.4,7,3,7.5,2.7c1.4-0.8,3-1.2,4.7-1.5c0.6-0.1,1.1,0.1,1.6,0.2
		c1.8,0.2,2.9,1.4,4.1,2.4c1.2,1.1,1.6,2.5,1.9,4c0.2,0.9,0.4,1.9,0.6,2.8c0.2,1.1,0.3,2.2-0.3,3.2c-0.1,0.2-0.2,0.5-0.2,0.7
		c0,0.9-0.4,1.5-1.1,2c-0.7,0.6-1.4,1.3-2.2,1.8c-0.6,0.4-0.8,0.8-1,1.4c-0.1,0.3-0.4,0.5-0.7,0.7c-0.5,0.5-1.1,1-1.6,1.4
		C12.4,22.4,11.5,23,10.4,22.7z M15.8,18.3c0.3-0.9,0.6-1.9,0.9-2.9c0.3-0.9,0.6-1.8,0.8-2.7c0.2-1.5,0.3-3.1,0.5-4.6
		c0.2-2.1-2.4-4.5-4.4-3.7C12.3,5,10.8,5.1,9.3,4.5C8,4,6.8,4.5,6.4,5.9c-0.7,2.2-1,4.5-0.9,6.7c0,0.8,0.3,1.6,0.5,2.4
		c0.1,0.6,0.4,1.2,0.6,1.7c0.1,0.2,0.3,0.4,0.4,0.4c0.5-0.1,1.1-0.2,1.4-0.9c0.2-0.6,0.6-1.1,0.9-1.6c0.1,0,0.1,0.1,0.2,0.1
		c-0.1,0.2-0.2,0.3-0.3,0.5s-0.1,0.4,0,0.5c0.6,0.8,1.4,0.9,2.3,0.5c0.2-0.1,0.5-0.1,0.8,0s0.5,0.4,0.8,0.6l0.1-0.1
		c-0.2-0.5-0.4-1-0.7-1.5c0.1,0,0.1-0.1,0.2-0.1c0.7,1.2,1.5,2.3,2.3,3.7c0.2-0.7,0.3-1.2,0.5-1.8h0.1
		C15.6,17.5,15.7,17.9,15.8,18.3z M9.1,20.6c0.1,0.1,0.4,0.3,0.5,0.3c0.6,0.1,0.7,0.1,1.2,0.3c0.5,0.2,1,0,1.4-0.2
		c0.3-0.3,0.5-0.7,0.7-1.1c0.1-0.2,0.2-0.5,0.2-0.7s-0.3-0.4-0.5-0.4c-1.3-0.1-2.5-0.1-3.8-0.1c-0.2,0-0.5,0.2-0.5,0.3
		c0,0.2,0.2,0.5,0.3,0.6C8.9,20.1,9,20.3,9.1,20.6z M11.9,18.3c-0.9-0.5-2.2-0.5-3,0C10,18.3,11,18.3,11.9,18.3z"/>
	<path d="M9.8,13.7c-0.4-0.2-0.6-0.3-1-0.4c-0.1-0.3-0.1-0.3-1-0.4C8,12.7,8,12.6,8.1,12.6s0.2-0.1,0.3-0.1c0-0.1,0-0.2,0-0.2
		c-0.5-0.1-1-0.1-1.5-0.2c0-0.1-0.1-0.2-0.1-0.4l-0.1,0.1c-0.2-0.1-0.6-0.2-0.7-0.4c-0.1-0.3,0.7-1.2,1-1.1c1.1,0.3,2.1,0.6,3.2,0.9
		c0.2,0.1,0.4,0.2,0.7,0.2C10.5,12.2,10.1,13,9.8,13.7z"/>
	<path d="M13.9,13c0.1,0.2,0.3,0.3,0.5,0.6c-0.7-0.1-1.2-0.2-1.7-0.3c-0.9-0.1-0.8-0.9-1.1-1.4c-0.1-0.1,0.4-0.7,0.6-0.7
		c1.1-0.1,2.2,0,3.3,0.1c0.3,0,0.6,0.5,0.8,0.9c0.1,0.2,0,0.6-0.2,0.7c-0.4,0.2-0.8,0.2-1.2,0.2C14.6,13.1,14.2,12.9,13.9,13
		C13.9,12.9,13.9,13,13.9,13z"/>
</g>
</svg>
